<svg width="10" height="11" viewBox="0 0 10 11" fill="none" xmlns="http://www.w3.org/2000/svg">
<path d="M2.85658 0.5C3.2516 0.5 3.57073 0.779297 3.57073 1.125V1.75H6.42732V1.125C6.42732 0.779297 6.74645 0.5 7.14146 0.5C7.53647 0.5 7.85561 0.779297 7.85561 1.125V1.75H8.92683C9.51823 1.75 9.99805 2.16992 9.99805 2.6875V3.625H0V2.6875C0 2.16992 0.479817 1.75 1.07122 1.75H2.14244V1.125C2.14244 0.779297 2.46157 0.5 2.85658 0.5ZM0 4.25H9.99805V9.5625C9.99805 10.0801 9.51823 10.5 8.92683 10.5H1.07122C0.479817 10.5 0 10.0801 0 9.5625V4.25ZM1.42829 5.8125V6.4375C1.42829 6.60938 1.58898 6.75 1.78537 6.75H2.49951C2.6959 6.75 2.85658 6.60938 2.85658 6.4375V5.8125C2.85658 5.64062 2.6959 5.5 2.49951 5.5H1.78537C1.58898 5.5 1.42829 5.64062 1.42829 5.8125ZM4.28488 5.8125V6.4375C4.28488 6.60938 4.44556 6.75 4.64195 6.75H5.3561C5.55249 6.75 5.71317 6.60938 5.71317 6.4375V5.8125C5.71317 5.64062 5.55249 5.5 5.3561 5.5H4.64195C4.44556 5.5 4.28488 5.64062 4.28488 5.8125ZM7.49854 5.5C7.30215 5.5 7.14146 5.64062 7.14146 5.8125V6.4375C7.14146 6.60938 7.30215 6.75 7.49854 6.75H8.21268C8.40907 6.75 8.56975 6.60938 8.56975 6.4375V5.8125C8.56975 5.64062 8.40907 5.5 8.21268 5.5H7.49854ZM1.42829 8.3125V8.9375C1.42829 9.10938 1.58898 9.25 1.78537 9.25H2.49951C2.6959 9.25 2.85658 9.10938 2.85658 8.9375V8.3125C2.85658 8.14062 2.6959 8 2.49951 8H1.78537C1.58898 8 1.42829 8.14062 1.42829 8.3125ZM4.64195 8C4.44556 8 4.28488 8.14062 4.28488 8.3125V8.9375C4.28488 9.10938 4.44556 9.25 4.64195 9.25H5.3561C5.55249 9.25 5.71317 9.10938 5.71317 8.9375V8.3125C5.71317 8.14062 5.55249 8 5.3561 8H4.64195ZM7.14146 8.3125V8.9375C7.14146 9.10938 7.30215 9.25 7.49854 9.25H8.21268C8.40907 9.25 8.56975 9.10938 8.56975 8.9375V8.3125C8.56975 8.14062 8.40907 8 8.21268 8H7.49854C7.30215 8 7.14146 8.14062 7.14146 8.3125Z" fill="#666666"/>
</svg>
